<mxfile host="app.diagrams.net" modified="2023-12-12T09:32:04.558Z" agent="Mozilla/5.0 (Macintosh; Intel Mac OS X 10_15_7) AppleWebKit/537.36 (KHTML, like Gecko) Chrome/120.0.0.0 Safari/537.36" etag="h3BqFE4TuwE4rAyRe-az" version="22.1.7" type="github">
  <diagram name="第 1 页" id="xxVKFMJhQaHEfw4vbOZt">
    <mxGraphModel dx="1264" dy="607" grid="1" gridSize="10" guides="1" tooltips="1" connect="1" arrows="1" fold="1" page="1" pageScale="1" pageWidth="827" pageHeight="1169" math="0" shadow="0">
      <root>
        <mxCell id="0" />
        <mxCell id="1" parent="0" />
        <mxCell id="wUkCP5_jq5JVWMtWeEml-5" style="edgeStyle=orthogonalEdgeStyle;rounded=0;orthogonalLoop=1;jettySize=auto;html=1;entryX=0.5;entryY=0;entryDx=0;entryDy=0;" edge="1" parent="1" source="wUkCP5_jq5JVWMtWeEml-1" target="wUkCP5_jq5JVWMtWeEml-3">
          <mxGeometry relative="1" as="geometry" />
        </mxCell>
        <mxCell id="wUkCP5_jq5JVWMtWeEml-1" value="acam" style="rounded=0;whiteSpace=wrap;html=1;" vertex="1" parent="1">
          <mxGeometry x="350" y="230" width="120" height="60" as="geometry" />
        </mxCell>
        <mxCell id="wUkCP5_jq5JVWMtWeEml-2" value="发布主机呈贡中心&lt;br&gt;10.170.106.193&lt;br&gt;deploy用户" style="rounded=0;whiteSpace=wrap;html=1;" vertex="1" parent="1">
          <mxGeometry x="230" y="390" width="120" height="60" as="geometry" />
        </mxCell>
        <mxCell id="wUkCP5_jq5JVWMtWeEml-3" value="发布主机高新中心" style="rounded=0;whiteSpace=wrap;html=1;" vertex="1" parent="1">
          <mxGeometry x="470" y="390" width="120" height="60" as="geometry" />
        </mxCell>
        <mxCell id="wUkCP5_jq5JVWMtWeEml-4" style="edgeStyle=orthogonalEdgeStyle;rounded=0;orthogonalLoop=1;jettySize=auto;html=1;entryX=0.65;entryY=0;entryDx=0;entryDy=0;entryPerimeter=0;" edge="1" parent="1" source="wUkCP5_jq5JVWMtWeEml-1" target="wUkCP5_jq5JVWMtWeEml-2">
          <mxGeometry relative="1" as="geometry" />
        </mxCell>
        <mxCell id="wUkCP5_jq5JVWMtWeEml-18" value="只会调用一个中心" style="edgeLabel;html=1;align=center;verticalAlign=middle;resizable=0;points=[];" vertex="1" connectable="0" parent="wUkCP5_jq5JVWMtWeEml-4">
          <mxGeometry x="-0.6832" y="-3" relative="1" as="geometry">
            <mxPoint as="offset" />
          </mxGeometry>
        </mxCell>
        <mxCell id="wUkCP5_jq5JVWMtWeEml-6" value="193" style="rounded=0;whiteSpace=wrap;html=1;" vertex="1" parent="1">
          <mxGeometry y="525" width="120" height="60" as="geometry" />
        </mxCell>
        <mxCell id="wUkCP5_jq5JVWMtWeEml-7" value="194" style="rounded=0;whiteSpace=wrap;html=1;" vertex="1" parent="1">
          <mxGeometry x="160" y="525" width="120" height="60" as="geometry" />
        </mxCell>
        <mxCell id="wUkCP5_jq5JVWMtWeEml-8" value="195" style="rounded=0;whiteSpace=wrap;html=1;" vertex="1" parent="1">
          <mxGeometry x="310" y="525" width="120" height="60" as="geometry" />
        </mxCell>
        <mxCell id="wUkCP5_jq5JVWMtWeEml-9" value="196" style="rounded=0;whiteSpace=wrap;html=1;" vertex="1" parent="1">
          <mxGeometry x="470" y="530" width="120" height="60" as="geometry" />
        </mxCell>
      </root>
    </mxGraphModel>
  </diagram>
</mxfile>
